<svg aria-hidden="true" style="position: absolute; width: 0; height: 0; overflow: hidden;" version="1.1" xmlns="http://www.w3.org/2000/svg" xmlns:xlink="http://www.w3.org/1999/xlink">
<defs>
<symbol id="icon-car" viewBox="0 0 32 32">
<path fill="#1e0478" style="fill: var(--color1, #1e0478)" d="M32 15.291v4.39c0 0.361-0.293 0.654-0.654 0.654h-2.984c-0.141 0.637-0.463 1.219-0.94 1.684-0.633 0.616-1.468 0.955-2.353 0.955s-1.719-0.34-2.352-0.956c-0.477-0.464-0.8-1.046-0.94-1.683h-11.729c-0.14 0.635-0.463 1.218-0.94 1.684-0.633 0.616-1.469 0.955-2.353 0.955s-1.72-0.34-2.353-0.955c-0.476-0.465-0.799-1.047-0.94-1.684h-2.807c-0.361 0-0.654-0.293-0.654-0.654v-2.339c0-0.971 0.349-1.909 0.984-2.644s1.514-1.216 2.474-1.357l3.963-0.578 5.524-2.809c1.194-0.607 2.533-0.928 3.871-0.928h3.737c1.094 0 2.163 0.206 3.178 0.613l6.097 2.444c1.318 0.529 2.17 1.788 2.17 3.208zM30.691 19.026v-1.953h-0.299c-1.197 0-2.171-0.974-2.171-2.172v-0.852h-4.141c-0.001 0-0.001 0-0.001 0s-0.001 0-0.001 0h-16.406l-2.752 0.401c-0.228 1.797-1.758 3.192-3.612 3.209v1.366h2.123c0.274-1.586 1.659-2.798 3.323-2.798s3.049 1.211 3.323 2.798h11.669c0.274-1.586 1.659-2.798 3.322-2.798s3.049 1.211 3.323 2.798h2.3zM30.691 15.764v-0.474c0-0.457-0.143-0.887-0.394-1.241h-0.768v0.852c0 0.476 0.387 0.863 0.863 0.863h0.299zM24.401 12.74h3.551l-4.706-1.887c-0.135-0.054-0.272-0.103-0.408-0.149l1.563 2.036zM27.133 19.601c0-1.14-0.924-2.064-2.064-2.064s-2.065 0.924-2.065 2.064 0.925 2.064 2.065 2.064c1.14 0 2.064-0.924 2.064-2.064zM22.751 12.74l-1.841-2.397c-0.118-0.006-0.236-0.008-0.355-0.008h-3.123v2.406h5.32zM16.122 12.74v-2.371c-0.898 0.087-1.779 0.342-2.584 0.751l-3.185 1.62h5.768zM8.818 19.601c0-1.14-0.924-2.064-2.064-2.064s-2.064 0.924-2.064 2.064 0.924 2.064 2.064 2.064 2.064-0.924 2.064-2.064zM1.502 16.34c0.972-0.093 1.775-0.776 2.044-1.686-0.94 0.173-1.703 0.831-2.044 1.686z"></path>
<path fill="#9b8ccc" style="fill: var(--color2, #9b8ccc)" d="M30.691 17.073v1.953h-2.3c-0.274-1.586-1.659-2.798-3.323-2.798s-3.048 1.211-3.322 2.798h-11.669c-0.274-1.586-1.66-2.798-3.323-2.798s-3.049 1.211-3.323 2.798h-2.123v-1.366c1.854-0.017 3.384-1.412 3.612-3.209l2.752-0.401h16.406c0 0 0 0 0.001 0s0 0 0.001 0h4.141v0.852c0 1.198 0.974 2.172 2.171 2.172l0.299 0zM18.792 16.538c0-0.362-0.293-0.654-0.654-0.654h-4.34c-0.362 0-0.654 0.292-0.654 0.654s0.293 0.654 0.654 0.654h4.34c0.362 0 0.654-0.293 0.654-0.654z"></path>
<path fill="#94e7ef" style="fill: var(--color3, #94e7ef)" d="M30.691 15.291v0.474h-0.299c-0.475 0-0.863-0.387-0.863-0.863v-0.852h0.768c0.251 0.355 0.394 0.784 0.394 1.241z"></path>
<path fill="#fff" style="fill: var(--color4, #fff)" d="M27.953 12.74h-3.551l-1.563-2.036c0.137 0.046 0.273 0.096 0.408 0.149l4.706 1.887z"></path>
<path fill="#fff" style="fill: var(--color4, #fff)" d="M25.069 17.537c1.14 0 2.064 0.924 2.064 2.064s-0.924 2.064-2.064 2.064c-1.14 0-2.065-0.924-2.065-2.064s0.925-2.064 2.065-2.064zM25.936 19.601c0-0.479-0.388-0.868-0.867-0.868s-0.868 0.389-0.868 0.868 0.388 0.868 0.868 0.868c0.479 0 0.867-0.389 0.867-0.868z"></path>
<path fill="#1e0478" style="fill: var(--color1, #1e0478)" d="M25.069 18.733c0.479 0 0.867 0.389 0.867 0.868s-0.388 0.868-0.867 0.868c-0.48 0-0.868-0.389-0.868-0.868s0.388-0.868 0.868-0.868z"></path>
<path fill="#fff" style="fill: var(--color4, #fff)" d="M20.91 10.343l1.841 2.397h-5.32v-2.406h3.123c0.119 0 0.238 0.003 0.355 0.008z"></path>
<path fill="#1e0478" style="fill: var(--color1, #1e0478)" d="M18.137 15.883c0.362 0 0.654 0.292 0.654 0.654s-0.293 0.654-0.654 0.654h-4.34c-0.362 0-0.654-0.293-0.654-0.654s0.293-0.654 0.654-0.654h4.34z"></path>
<path fill="#fff" style="fill: var(--color4, #fff)" d="M16.122 10.37v2.371h-5.768l3.185-1.62c0.804-0.409 1.686-0.664 2.584-0.751z"></path>
<path fill="#fff" style="fill: var(--color4, #fff)" d="M6.754 17.537c1.14 0 2.064 0.924 2.064 2.064s-0.924 2.064-2.064 2.064-2.064-0.924-2.064-2.064 0.924-2.064 2.064-2.064zM7.622 19.601c0-0.479-0.388-0.868-0.868-0.868s-0.867 0.389-0.867 0.868 0.388 0.868 0.867 0.868c0.48 0 0.868-0.389 0.868-0.868z"></path>
<path fill="#1e0478" style="fill: var(--color1, #1e0478)" d="M6.754 18.733c0.48 0 0.868 0.389 0.868 0.868s-0.388 0.868-0.868 0.868c-0.479 0-0.867-0.389-0.867-0.868s0.388-0.868 0.867-0.868z"></path>
<path fill="#94e7ef" style="fill: var(--color3, #94e7ef)" d="M3.546 14.654c-0.269 0.91-1.072 1.593-2.044 1.686 0.341-0.855 1.105-1.513 2.044-1.686z"></path>
</symbol>
</defs>
</svg>
